<svg version="1.1" width="128" height="128" xmlns="http://www.w3.org/2000/svg">
  <rect width="100%" height="100%" fill="#222" />
  <!-- row 1 -->
  <circle cx="8" cy="8" r="6" fill="#444" />
  <circle cx="24" cy="8" r="6" fill="#c7e916" />
  <circle cx="40" cy="8" r="6" fill="#c7e916" />
  <circle cx="56" cy="8" r="6" fill="#c7e916" />
  <circle cx="72" cy="8" r="6" fill="#c7e916" />
  <circle cx="88" cy="8" r="6" fill="#c7e916" />
  <circle cx="104" cy="8" r="6" fill="#c7e916" />
  <circle cx="120" cy="8" r="6" fill="#444" />
  <!-- row 2 -->
  <circle cx="8" cy="24" r="6" fill="#c7e916" />
  <circle cx="24" cy="24" r="6" fill="#c7e916" />
  <circle cx="40" cy="24" r="6" fill="#c7e916" />
  <circle cx="56" cy="24" r="6" fill="#c7e916" />
  <circle cx="72" cy="24" r="6" fill="#c7e916" />
  <circle cx="88" cy="24" r="6" fill="#c7e916" />
  <circle cx="104" cy="24" r="6" fill="#c7e916" />
  <circle cx="120" cy="24" r="6" fill="#c7e916" />
  <!-- row 3 -->
  <circle cx="8" cy="40" r="6" fill="#c7e916" />
  <circle cx="24" cy="40" r="6" fill="#444" />
  <circle cx="40" cy="40" r="6" fill="#c7e916" />
  <circle cx="56" cy="40" r="6" fill="#c7e916" />
  <circle cx="72" cy="40" r="6" fill="#c7e916" />
  <circle cx="88" cy="40" r="6" fill="#c7e916" />
  <circle cx="104" cy="40" r="6" fill="#444" />
  <circle cx="120" cy="40" r="6" fill="#c7e916" />
  <!-- row 4 -->
  <circle cx="8" cy="56" r="6" fill="#c7e916" />
  <circle cx="24" cy="56" r="6" fill="#444" />
  <circle cx="40" cy="56" r="6" fill="#c7e916" />
  <circle cx="56" cy="56" r="6" fill="#c7e916" />
  <circle cx="72" cy="56" r="6" fill="#c7e916" />
  <circle cx="88" cy="56" r="6" fill="#c7e916" />
  <circle cx="104" cy="56" r="6" fill="#444" />
  <circle cx="120" cy="56" r="6" fill="#c7e916" />
  <!-- row 5 -->
  <circle cx="8" cy="72" r="6" fill="#c7e916" />
  <circle cx="24" cy="72" r="6" fill="#c7e916" />
  <circle cx="40" cy="72" r="6" fill="#c7e916" />
  <circle cx="56" cy="72" r="6" fill="#c7e916" />
  <circle cx="72" cy="72" r="6" fill="#c7e916" />
  <circle cx="88" cy="72" r="6" fill="#c7e916" />
  <circle cx="104" cy="72" r="6" fill="#c7e916" />
  <circle cx="120" cy="72" r="6" fill="#c7e916" />
  <!-- row 6 -->
  <circle cx="8" cy="88" r="6" fill="#c7e916" />
  <circle cx="24" cy="88" r="6" fill="#444" />
  <circle cx="40" cy="88" r="6" fill="#c7e916" />
  <circle cx="56" cy="88" r="6" fill="#c7e916" />
  <circle cx="72" cy="88" r="6" fill="#c7e916" />
  <circle cx="88" cy="88" r="6" fill="#c7e916" />
  <circle cx="104" cy="88" r="6" fill="#444" />
  <circle cx="120" cy="88" r="6" fill="#c7e916" />
  <!-- row 7 -->
  <circle cx="8" cy="104" r="6" fill="#c7e916" />
  <circle cx="24" cy="104" r="6" fill="#c7e916" />
  <circle cx="40" cy="104" r="6" fill="#444" />
  <circle cx="56" cy="104" r="6" fill="#444" />
  <circle cx="72" cy="104" r="6" fill="#444" />
  <circle cx="88" cy="104" r="6" fill="#444" />
  <circle cx="104" cy="104" r="6" fill="#c7e916" />
  <circle cx="120" cy="104" r="6" fill="#c7e916" />
  <!-- row 8 -->
  <circle cx="8" cy="120" r="6" fill="#444" />
  <circle cx="24" cy="120" r="6" fill="#c7e916" />
  <circle cx="40" cy="120" r="6" fill="#c7e916" />
  <circle cx="56" cy="120" r="6" fill="#c7e916" />
  <circle cx="72" cy="120" r="6" fill="#c7e916" />
  <circle cx="88" cy="120" r="6" fill="#c7e916" />
  <circle cx="104" cy="120" r="6" fill="#c7e916" />
  <circle cx="120" cy="120" r="6" fill="#444" />
</svg>